{"title":"Mechanic.Resurrection.2016.WP.x264-xXx","uid":15500218,"size":550086000,"categoryP":"video","categoryS":"movies","magnet":"?xt=urn:btih:b7e5d0ec781af6b3df2a5fb4f55e98140b60686d&amp;dn=Mechanic.Resurrection.2016.WP.x264-xXx&amp;tr=udp%3A%2F%2Ftracker.leechers-paradise.org%3A6969&amp;tr=udp%3A%2F%2Fzer0day.ch%3A1337&amp;tr=udp%3A%2F%2Fopen.demonii.com%3A1337&amp;tr=udp%3A%2F%2Ftracker.coppersurfer.tk%3A6969&amp;tr=udp%3A%2F%2Fexodus.desync.com%3A6969","seeders":23,"leechers":13,"uploader":"TGroup","files":4,"time":1470491021,"description":"Mechanic.Resurrection.2016.WP.x264-xXx\r\n\r\nSource: HDTS-CINEZEN\r\n\r\nNOTE: its a workprint. cropped black bars, resized to a slightly smaller res, adjusted some gain, gamma_y, off_y, levels, color balance. deblock. nice english audio. \r\n\r\n\r\nArthur Bishop thought he had put his murderous past behind him when his most formidable foe kidnaps the love of his life. Now he is forced to travel the globe to complete three impossible assassinations, and do what he does best, make them look like accidents.\r\n\r\nGeneral\r\nComplete name                            : Mechanic.Resurrection.2016.WP.x264-xXx.mp4\r\nFormat                                   : MPEG-4\r\nFormat profile                           : Base Media\r\nCodec ID                                 : isom (isom/avc1)\r\nFile size                                : 515 MiB\r\nDuration                                 : 1 h 35 min\r\nOverall bit rate mode                    : Variable\r\nOverall bit rate                         : 757 kb/s\r\nEncoded date                             : UTC 2016-08-05 21:38:03\r\nTagged date                              : UTC 2016-08-05 21:38:03\r\n\r\nVideo\r\nID                                       : 1\r\nFormat                                   : AVC\r\nFormat/Info                              : Advanced Video Codec\r\nFormat profile                           :   \r\nFormat settings, CABAC                   : Yes\r\nFormat settings, ReFrames                : 3 frames\r\nCodec ID                                 : avc1\r\nCodec ID/Info                            : Advanced Video Coding\r\nDuration                                 : 1 h 35 min\r\nBit rate mode                            : Variable\r\nBit rate                                 : 629 kb/s\r\nMaximum bit rate                         : 40.0 Mb/s\r\nWidth                                    : 640 pixels\r\nHeight                                   : 256 pixels\r\nDisplay aspect ratio                     : 2.500\r\nFrame rate mode                          : Constant\r\nFrame rate                               : 23.976 (24000/1001) FPS\r\nColor space                              : YUV\r\nChroma subsampling                       : 4:2:0\r\nBit depth                                : 8 bits\r\nScan type                                : Progressive\r\nBits/(Pixel*Frame)                       : 0.160\r\nStream size                              : 428 MiB (83%)\r\nWriting library                          : x264 core 148 r2705 3f5ed56\r\n\r\nAudio\r\nID                                       : 2\r\nFormat                                   : AAC\r\nFormat/Info                              : Advanced Audio Codec\r\nFormat profile                           : LC\r\nCodec ID                                 : 40\r\nDuration                                 : 1 h 35 min\r\nBit rate mode                            : Variable\r\nBit rate                                 : 123 kb/s\r\nMaximum bit rate                         : 147 kb/s\r\nChannel(s)                               : 2 channels\r\nChannel positions                        : Front: L R\r\nSampling rate                            : 44.1 kHz\r\nFrame rate                               : 43.066 FPS (1024 spf)\r\nCompression mode                         : Lossy\r\nStream size                              : 83.9 MiB (16%)\r\nLanguage                                 : English\r\nEncoded date                             : UTC 2016-08-05 21:28:17\r\nTagged date                              : UTC 2016-08-05 21:40:28","torrent":{"xt":"urn:btih:b7e5d0ec781af6b3df2a5fb4f55e98140b60686d","amp;dn":"Mechanic.Resurrection.2016.WP.x264-xXx","amp;tr":["udp%3A%2F%2Ftracker.leechers-paradise.org%3A6969","udp%3A%2F%2Fzer0day.ch%3A1337","udp%3A%2F%2Fopen.demonii.com%3A1337","udp%3A%2F%2Ftracker.coppersurfer.tk%3A6969","udp%3A%2F%2Fexodus.desync.com%3A6969"],"infoHash":"b7e5d0ec781af6b3df2a5fb4f55e98140b60686d","infoHashBuffer":{"type":"Buffer","data":[183,229,208,236,120,26,246,179,223,42,95,180,245,94,152,20,11,96,104,109]},"announce":[],"urlList":[]}}